/* XPM */
static char *redeclipse_x32[] = {
/* columns rows colors chars-per-pixel */
"32 32 185 2",
"   c black",
".  c #010000",
"X  c #020000",
"o  c #030000",
"O  c #040000",
"+  c #050000",
"@  c #050100",
"#  c #060000",
"$  c #060100",
"%  c #070000",
"&  c #060201",
"*  c #080000",
"=  c #080100",
"-  c #090000",
";  c #090100",
":  c #0A0000",
">  c #0B0000",
",  c #0A0201",
"<  c #0C0000",
"1  c #0C0100",
"2  c #0D0000",
"3  c #0D0201",
"4  c #0E0000",
"5  c #0F0502",
"6  c #100000",
"7  c #100100",
"8  c #110000",
"9  c #130000",
"0  c #140000",
"q  c #150301",
"w  c #160000",
"e  c #170000",
"r  c #160202",
"t  c #160602",
"y  c #160603",
"u  c #170603",
"i  c #160803",
"p  c #170804",
"a  c #180000",
"s  c #190101",
"d  c #1A0000",
"f  c #1B0000",
"g  c #190404",
"h  c #1C0000",
"j  c #1E0000",
"k  c #1F0000",
"l  c #190904",
"z  c #1D0805",
"x  c #200000",
"c  c #220000",
"v  c #230000",
"b  c #230101",
"n  c #220702",
"m  c #250000",
"M  c #260000",
"N  c #270201",
"B  c #220B04",
"V  c #240D06",
"C  c #280000",
"Z  c #290000",
"A  c #2A0000",
"S  c #2A0101",
"D  c #2B0000",
"F  c #280502",
"G  c #2B0606",
"H  c #2C0000",
"J  c #2B0D09",
"K  c #2D0908",
"L  c #300000",
"P  c #310000",
"I  c #310101",
"U  c #360101",
"Y  c #370000",
"T  c #380101",
"R  c #3A0000",
"E  c #390505",
"W  c #420303",
"Q  c #430202",
"!  c #48190A",
"~  c #520A03",
"^  c #5E0402",
"/  c #501207",
"(  c #5F190A",
")  c #5D221A",
"_  c #610102",
"`  c #680403",
"'  c #671106",
"]  c #601818",
"[  c #611919",
"{  c #671E1E",
"}  c #710503",
"|  c #760702",
" . c #740504",
".. c #7A0702",
"X. c #6D2727",
"o. c #77292A",
"O. c #870702",
"+. c #910405",
"@. c #950602",
"#. c #90191A",
"$. c #A00203",
"%. c #A40705",
"&. c #AD0503",
"*. c #A80802",
"=. c #B60203",
"-. c #904949",
";. c #935454",
":. c #BB5F5E",
">. c #A56767",
",. c #A66767",
"<. c #A76969",
"1. c #AB6F6F",
"2. c #AD6F6F",
"3. c #B67A7A",
"4. c #CE0402",
"5. c #CF0C04",
"6. c #CD1C1B",
"7. c #DF0503",
"8. c #E20403",
"9. c #EB0702",
"0. c #EF0403",
"q. c #EF0605",
"w. c #F60301",
"e. c #F90201",
"r. c #FC0101",
"t. c red",
"y. c #FF0100",
"u. c #FF0101",
"i. c #FF0202",
"p. c #FF0303",
"a. c #FF0404",
"s. c #FF0505",
"d. c #FF0707",
"f. c #FF0808",
"g. c #FF0909",
"h. c #FF0A0A",
"j. c #FF0F0F",
"k. c #FF1111",
"l. c #FF1212",
"z. c #FF1B1B",
"x. c #FF1C1C",
"c. c #FF2020",
"v. c #FF2121",
"b. c #FF2626",
"n. c #FF3131",
"m. c #FF3939",
"M. c #FF3D3D",
"N. c #FF4949",
"B. c #FF4D4D",
"V. c #FF5F5F",
"C. c #FF6262",
"Z. c #FF6A6A",
"A. c #FF7878",
"S. c #C69595",
"D. c #D2A5A5",
"F. c #D7B0B0",
"G. c #D9B3B3",
"H. c #FF8282",
"J. c #FF8383",
"K. c #FF8484",
"L. c #FF8A8A",
"P. c #FF9696",
"I. c #FFA3A3",
"U. c #FFAAAA",
"Y. c #FFBBBB",
"T. c #FFBDBD",
"R. c #ECD2D2",
"E. c #ECD5D5",
"W. c #EFD9D9",
"Q. c #FFCFCF",
"!. c #F0DBDB",
"~. c #FFD2D2",
"^. c #FFD3D3",
"/. c #FFD6D6",
"(. c #FFD9D9",
"). c #FFDBDB",
"_. c #FFDDDD",
"`. c #FFEDED",
"'. c #FFEFEF",
"]. c #FFF6F6",
"[. c #FEFCFC",
"{. c #FFFCFC",
"}. c #FFFEFE",
"|. c gray100",
" X c None",
/* pixels */
" X X X X X X X X X X X X X X X X X X X X X X X X X X X X X X X X",
" X X X X X X X X X X X X X X X X X X X X X X X X X X X X X X X X",
" X X X X X X X X X X X X X X X X X X X X X X X X X X X X X X X X",
" X X X X X X X X X X X X X X X X X X X X X X X X X X X X X X X X",
" X X X X X X X X X X X X X X X Xt.t.t. X X X X X X X X X X X X X",
" X X X X Xt.t.t.t.t.t.t.t.t.t.t.t.t.t. X Xt.t.t.t.t. X X X X X X",
" X X Xt.t.t.t.t.t.t.k.B.A.L.J.C.n.h.t.t.t.t.t.t.t.t. X X X X X X",
" Xt.t.t.t.t.t.t.t.N.I.).`.].].`./.P.m.t.t.t.t.t.t.t.t. X X X X X",
" Xt.t.t.t.t.t.a.V.~.{.|.|.|.|.|.|.|.~.C.h.t.t.t.t.t.t. X X X X X",
"t.t.t.t.t.t.t.B.).|.|.|.|.|.W.D.3.<.1.:.6.0.t.t.t.t.t.t. X X X X",
"t.t.t.t.t.t.v.T.|.|.|.|.W.2.{ W L Z m L W ` %.0.t.t.t.t.t. X X X",
"t.t.t.t.t.t.Z.].|.|.|.G.o.Y m k a w 9 9 9 a Y } 7.t.t.t.t. X X X",
"t.t.t.t.t.h.U.|.|.|.F.] H v a 9 9 1 1 1 > 1 1 v ` 8.t.t.t. X X X",
"t.t.t.t.t.x.Q.|.|.E.X.Z v w 9 > 1 1 > > % > > > a } w.t.t. X X X",
"t.t.t.t.t.b.).|.{.,.L k 9 > > % > > > > % % % % % v &.t.t.x. X X",
"t.t.t.t.t.v./.|.R.] k w > > % % % % % % % %   %   % ^ e.t.a.j. X",
"t.t.t.t.t.k.Y.|.S.R k 9 > % > % > % % % %           m 4.t.t.t.t.",
"t.t.t.t.t.t.J.|.>.Z w 1 > % % % %                   9 @.t.t.t.t.",
" Xt.t.t.t.t.M._.;.v w 1 % % % % %                   1 ..t.t.t.t.",
" Xt.t.t.t.t.h.J.-.v 9 > % % > % % %                 > | t.t.t.t.",
" Xt.t.t.t.t.t.v.#.v 1 > % % % %                     1 O.t.t.t.t.",
" X Xt.t.t.t.t.t.+.Z 9 1 % % %                       q *.t.t.t. X",
" X Xt.t.t.t.t.t.=.R 1 1 > % %                       F 9.t.t. X X",
" X X Xt.t.t.t.t.t._ w 1 > % %                     > ~ t.t.t. X X",
" X X X Xt.t.t.t.t.$.Z 1 > % %                     n 5.t.t.t. X X",
" X X X Xt.t.t.t.t.a.E a >                       i ' t.t.t.t. X X",
" X X X X X Xt.t.t. X XG w %                 % q / t.t.t.t. X X X",
" X X X X X X X X X X X XJ g 1 %         & y B ( t.t.t.t. X X X X",
" X X X X X X X X X X X X X) J z p l p l V !  Xt.t.t. X X X X X X",
" X X X X X X X X X X X X X X X X X X X X X X X X X X X X X X X X",
" X X X X X X X X X X X X X X X X X X X X X X X X X X X X X X X X",
" X X X X X X X X X X X X X X X X X X X X X X X X X X X X X X X X"
};
